<svg xmlns="http://www.w3.org/2000/svg" width="193" height="193" viewBox="0 0 193 193">
  <g id="youps_package" transform="translate(1402 -306)">
    <g id="Group_10" data-name="Group 10" transform="translate(-1693 -425)">
      <circle id="Ellipse_13" data-name="Ellipse 13" cx="96.5" cy="96.5" r="96.5" transform="translate(291 731)" fill="#ede1d6"/>
      <path id="Subtraction_2" data-name="Subtraction 2" d="M70.467,111.7h0L0,88.3V23.538L21.308,30.1V56.732l21.66,7.281V36.763l27.5,8.464V111.7Zm4.33,0h0V45.226l54-21.688V88.3l-54,23.4Zm-2.952-70.88h0l-25.238-7.73,52-21.062L125.921,20.4h.095l-.042.016.042.013h-.077l-54.094,20.4ZM24.522,26.328h0l-19.271-5.9H5.157L5.2,20.41,5.157,20.4h.077L59.328,0,76.836,5.363,24.522,26.328Z" transform="translate(322.95 769.596)" fill="#8d5523"/>
    </g>
    <g id="Group_11" data-name="Group 11" transform="translate(-1693 -425)">
      <circle id="Ellipse_13-2" data-name="Ellipse 13" cx="96.5" cy="96.5" r="96.5" transform="translate(291 731)" fill="#ede1d6"/>
      <path id="Subtraction_2-2" data-name="Subtraction 2" d="M70.467,111.7h0L0,88.3V23.538L21.308,30.1V56.732l21.66,7.281V36.763l27.5,8.464V111.7Zm4.33,0h0V45.226l54-21.688V88.3l-54,23.4Zm-2.952-70.88h0l-25.238-7.73,52-21.062L125.921,20.4h.095l-.042.016.042.013h-.077l-54.094,20.4ZM24.522,26.328h0l-19.271-5.9H5.157L5.2,20.41,5.157,20.4h.077L59.328,0,76.836,5.363,24.522,26.328Z" transform="translate(322.95 769.596)" fill="#8d5523"/>
    </g>
  </g>
</svg>
