<svg xmlns="http://www.w3.org/2000/svg" width="124.43" height="32.66" viewBox="0 0 124.43 32.66">
  <path id="Path_8" data-name="Path 8" d="M26.5-31.74H21.482L13.2-17.158,4.968-31.74H-.046l11.04,18.446V0h4.462V-13.294ZM47.242-10.856c0-6.762-5.06-11.408-11.546-11.408-6.532,0-11.592,4.646-11.592,11.408C24.1-4.048,29.164.506,35.7.506,42.182.506,47.242-4.048,47.242-10.856Zm-4.462-.138c0,4.324-2.714,7.728-7.084,7.728-4.416,0-7.13-3.4-7.13-7.728,0-4.278,2.714-7.682,7.13-7.682C40.066-18.676,42.78-15.272,42.78-10.994ZM70.426,0V-21.9H66.01v11.73c0,3.68-1.564,6.992-5.428,6.992-3.91,0-4.554-2.806-4.554-5.8V-21.9h-4.37v13.11c0,5.428,1.61,9.292,7.682,9.292A7.617,7.617,0,0,0,66.1-3.128L66.148,0ZM99.314-21.758c0-7.084-5.106-9.982-11.592-9.982H76.36V0h7.452V-11.73h3.91C94.208-11.73,99.314-14.674,99.314-21.758Zm-7.544,0c0,3.266-2.208,4.278-5.106,4.278h-2.9v-8.51h2.9C89.516-25.99,91.77-24.978,91.77-21.758Zm32.614,12.1c0-4.6-2.852-7.222-6.9-8.694-1.012-.414-3.358-1.242-4.738-1.794-1.426-.552-3.22-1.288-3.22-3.22s1.748-2.852,4.14-2.852A10.954,10.954,0,0,1,120.75-23l3.174-5.2a15.63,15.63,0,0,0-10.074-3.91c-3.68,0-6.578,1.012-8.372,2.53a8.939,8.939,0,0,0-3.312,6.946,7.834,7.834,0,0,0,2.484,6.118,12.4,12.4,0,0,0,3.772,2.3c1.058.46,3.45,1.288,4.83,1.794s3.726,1.334,3.726,3.5c0,2.116-1.84,3.266-4.232,3.266-2.438,0-5.98-1.61-8.28-4l-3.68,5.428A17.207,17.207,0,0,0,112.056.552C118.22.552,124.384-2.806,124.384-9.66Z" transform="translate(0.046 32.108)" fill="#b99679"/>
</svg>
